<svg width="160" height="44" viewBox="0 0 160 44" fill="none" xmlns="http://www.w3.org/2000/svg">
<g clip-path="url(#clip0_1_40)">
<path d="M29.8746 42.6659C41.4357 38.5166 47.3869 25.8929 43.1721 14.4713C38.987 3.06446 26.2089 -2.81491 14.6479 1.33437C3.10161 5.48366 -2.8496 18.1074 1.35038 29.5143C5.55037 40.9358 18.3284 46.8152 29.8746 42.6659ZM32.7835 6.90585C34.0746 7.77089 35.2322 8.79722 36.2711 9.97016L17.6012 16.6853L13.7426 18.0781L15.1524 21.8902L16.5623 25.7023L17.9722 29.5143L21.8309 28.1214L40.8124 21.3037C40.8718 22.8139 40.7382 24.3094 40.4265 25.7609L23.2259 31.9482L19.3673 33.341L20.7772 37.1531L21.9496 40.3347C20.3764 40.3054 18.833 40.0855 17.3341 39.6749L8.47403 15.6443L32.7835 6.90585ZM39.6993 15.7322C39.8774 16.2161 40.0407 16.7146 40.1742 17.2131L20.421 24.324L19.0111 20.512L38.6605 13.445C39.0612 14.1634 39.4025 14.9258 39.6993 15.7322ZM26.1644 39.9242L24.6358 35.7602L38.5714 30.7459C36.4789 34.5433 33.0506 37.6369 28.6132 39.2204C27.7969 39.5136 26.9807 39.7482 26.1644 39.9242ZM27.6188 4.44267L6.75248 11.9495C8.87473 8.75323 12.0062 6.18742 15.9242 4.77989C19.8422 3.37236 23.9086 3.34304 27.6188 4.44267ZM4.49666 16.7146L12.0952 37.3144C8.85989 35.2177 6.26273 32.1241 4.838 28.2534C3.41327 24.3827 3.38359 20.38 4.49666 16.7146Z" fill="white"/>
<path d="M69.3964 11.7012V14.4283H60.6403V20.4396H67.4671V23.1667H60.6403V32.081H57.2565V11.7012H69.3964Z" fill="white"/>
<path d="M72.2149 13.1664C71.7994 12.7559 71.5916 12.2427 71.5916 11.6416C71.5916 11.0405 71.7994 10.5273 72.2149 10.1168C72.6304 9.70624 73.1499 9.50098 73.7584 9.50098C74.3668 9.50098 74.8566 9.70624 75.2721 10.1168C75.6877 10.5273 75.8954 11.0405 75.8954 11.6416C75.8954 12.2427 75.6877 12.7559 75.2721 13.1664C74.8566 13.577 74.352 13.7822 73.7584 13.7822C73.1647 13.7822 72.6304 13.577 72.2149 13.1664ZM75.4205 15.9228V32.0801H72.0368V15.9228H75.4205Z" fill="white"/>
<path d="M91.0772 16.4509C92.1013 16.9787 92.8878 17.7558 93.4666 18.7968C94.0454 19.8378 94.3274 21.084 94.3274 22.5502V32.0804H90.9733V23.0487C90.9733 21.5972 90.6023 20.4976 89.8751 19.7205C89.1479 18.9434 88.1387 18.5622 86.8773 18.5622C85.6158 18.5622 84.6066 18.9434 83.8645 19.7205C83.1225 20.4976 82.7515 21.5972 82.7515 23.0487V32.0804H79.3677V15.9231H82.7515V17.7705C83.3006 17.1107 84.013 16.5829 84.8737 16.2163C85.7345 15.8498 86.6546 15.6592 87.6193 15.6592C88.8956 15.6592 90.0532 15.9231 91.0772 16.4509Z" fill="white"/>
<path d="M104.984 18.65H101.956V32.0802H98.5427V18.65H96.6134V15.9229H98.5427V14.7793C98.5427 12.9172 99.0473 11.5683 100.042 10.718C101.036 9.86757 102.609 9.44238 104.746 9.44238V12.2281C103.722 12.2281 102.995 12.4187 102.579 12.7999C102.164 13.1811 101.956 13.8409 101.956 14.7793V15.9229H104.984V18.65Z" fill="white"/>
<path d="M107.376 19.6179C108.058 18.3716 108.993 17.3893 110.166 16.7002C111.338 16.0111 112.644 15.6592 114.069 15.6592C115.36 15.6592 116.473 15.9084 117.438 16.4069C118.403 16.9054 119.159 17.5212 119.738 18.269V15.9231H123.152V32.0804H119.738V29.6758C119.159 30.4383 118.388 31.0687 117.393 31.5819C116.399 32.095 115.271 32.3443 114.01 32.3443C112.6 32.3443 111.323 31.9924 110.151 31.274C108.979 30.5555 108.058 29.5585 107.376 28.283C106.693 27.0074 106.352 25.5559 106.352 23.9284C106.352 22.301 106.693 20.8788 107.376 19.6179ZM119.041 21.084C118.581 20.263 117.972 19.6325 117.215 19.2073C116.458 18.7821 115.657 18.5622 114.781 18.5622C113.906 18.5622 113.104 18.7675 112.347 19.1927C111.591 19.6179 110.982 20.2337 110.522 21.0401C110.062 21.8464 109.825 22.8141 109.825 23.9284C109.825 25.0427 110.062 26.0251 110.522 26.8608C110.982 27.6965 111.605 28.3416 112.362 28.7815C113.119 29.2213 113.935 29.4413 114.781 29.4413C115.627 29.4413 116.458 29.2213 117.215 28.7961C117.972 28.3709 118.581 27.7405 119.041 26.9048C119.501 26.069 119.738 25.1014 119.738 23.9871C119.738 22.8728 119.501 21.9051 119.041 21.084Z" fill="white"/>
<path d="M132.454 16.3483C133.27 15.8938 134.25 15.6592 135.378 15.6592V19.1194H134.517C133.196 19.1194 132.187 19.4566 131.504 20.1164C130.822 20.7761 130.48 21.9344 130.48 23.5765V32.0804H127.097V15.9231H130.48V18.269C130.97 17.4479 131.623 16.8175 132.454 16.3483Z" fill="white"/>
<path d="M152.859 25.248H140.363C140.467 26.5382 140.942 27.5792 141.817 28.3563C142.693 29.1334 143.762 29.5292 145.023 29.5292C146.848 29.5292 148.125 28.7815 148.882 27.2713H152.532C152.043 28.7521 151.137 29.9691 149.846 30.9221C148.555 31.8751 146.937 32.3443 145.023 32.3443C143.465 32.3443 142.055 31.9924 140.823 31.3033C139.591 30.6142 138.612 29.6319 137.914 28.3709C137.217 27.11 136.86 25.6439 136.86 23.9871C136.86 22.3303 137.202 20.8641 137.884 19.6032C138.567 18.3423 139.532 17.3746 140.764 16.6855C141.995 15.9964 143.42 15.6592 145.023 15.6592C146.626 15.6592 147.947 15.9964 149.149 16.6562C150.351 17.316 151.301 18.2543 151.969 19.4566C152.636 20.6588 152.978 22.0371 152.978 23.6059C152.978 24.2217 152.933 24.7641 152.859 25.248ZM149.446 22.5502C149.431 21.3186 148.986 20.3363 148.11 19.5885C147.234 18.8408 146.166 18.4742 144.875 18.4742C143.702 18.4742 142.708 18.8408 141.877 19.5739C141.046 20.307 140.556 21.304 140.393 22.5502H149.446Z" fill="white"/>
<path d="M155.087 16.099V15.6738H157.002V16.099H156.304V17.9757H155.785V16.099H155.087Z" fill="white"/>
<path d="M157.979 15.6738L158.529 17.2573L159.048 15.6738H159.775V17.9757H159.3V16.3483L158.722 17.9757H158.321L157.757 16.3629V17.9757H157.282V15.6738H157.979Z" fill="white"/>
</g>
<defs>
<clipPath id="clip0_1_40">
<rect width="160" height="44" fill="white"/>
</clipPath>
</defs>
</svg>
