<svg width="185" height="50" viewBox="0 0 185 50" fill="none" xmlns="http://www.w3.org/2000/svg">
<g clip-path="url(#clip0_1_204)">
<path d="M34.5922 48.4919C47.9786 43.776 54.8695 29.4283 49.9892 16.447C45.1432 3.48241 30.3477 -3.19985 16.9613 1.51606C3.592 6.23198 -3.29884 20.5797 1.56428 33.5443C6.42739 46.5256 21.2229 53.2078 34.5922 48.4919ZM37.9603 7.84839C39.4553 8.83156 40.7957 9.99805 41.9986 11.3312L20.3809 18.9633L15.913 20.5464L17.5455 24.879L19.178 29.2117L20.8105 33.5443L25.2784 31.9612L47.2569 24.2125C47.3256 25.9288 47.171 27.6286 46.8101 29.2783L26.8937 36.3105L22.4258 37.8936L24.0583 42.2262L25.4159 45.8423C23.5943 45.809 21.8072 45.5591 20.0716 45.0925L9.81266 17.7801L37.9603 7.84839ZM45.9681 17.8801C46.1743 18.43 46.3633 18.9966 46.518 19.5632L23.6459 27.6452L22.0134 23.3126L44.7652 15.2805C45.2292 16.0971 45.6244 16.9636 45.9681 17.8801ZM30.2962 45.3758L28.5262 40.6432L44.6621 34.9441C42.2391 39.2601 38.2696 42.7762 33.1315 44.5759C32.1864 44.9092 31.2413 45.1758 30.2962 45.3758ZM31.9802 5.04883L7.8193 13.5808C10.2766 9.94805 13.9025 7.03185 18.4391 5.43211C22.9757 3.83236 27.6842 3.79903 31.9802 5.04883ZM5.20731 18.9966L14.0056 42.4096C10.2594 40.0266 7.25223 36.5105 5.60255 32.1112C3.95287 27.7119 3.9185 23.1626 5.20731 18.9966Z" fill="url(#paint0_linear_1_204)"/>
<path d="M80.3557 13.2974V16.3969H70.2171V23.2291H78.1218V26.3286H70.2171V36.4603H66.2991V13.2974H80.3557Z" fill="#1A1A1A"/>
<path d="M83.6206 14.9639C83.1394 14.4973 82.8988 13.914 82.8988 13.2308C82.8988 12.5476 83.1394 11.9643 83.6206 11.4977C84.1017 11.0311 84.7032 10.7979 85.4077 10.7979C86.1123 10.7979 86.6794 11.0311 87.1605 11.4977C87.6417 11.9643 87.8822 12.5476 87.8822 13.2308C87.8822 13.914 87.6417 14.4973 87.1605 14.9639C86.6794 15.4304 86.0951 15.6637 85.4077 15.6637C84.7204 15.6637 84.1017 15.4304 83.6206 14.9639ZM87.3323 18.0967V36.4604H83.4144V18.0967H87.3323Z" fill="#1A1A1A"/>
<path d="M105.461 18.6962C106.646 19.2961 107.557 20.1793 108.227 21.3625C108.898 22.5456 109.224 23.9621 109.224 25.6285V36.4601H105.34V26.195C105.34 24.5453 104.911 23.2955 104.069 22.4123C103.227 21.5291 102.058 21.0959 100.598 21.0959C99.1369 21.0959 97.9684 21.5291 97.1092 22.4123C96.25 23.2955 95.8204 24.5453 95.8204 26.195V36.4601H91.9024V18.0963H95.8204V20.196C96.4562 19.4461 97.2811 18.8462 98.2777 18.4296C99.2744 18.013 100.34 17.7964 101.457 17.7964C102.935 17.7964 104.275 18.0963 105.461 18.6962Z" fill="#1A1A1A"/>
<path d="M121.563 21.196H118.057V36.4602H114.105V21.196H111.871V18.0964H114.105V16.7967C114.105 14.6803 114.689 13.1472 115.841 12.1807C116.992 11.2142 118.813 10.731 121.288 10.731V13.8971C120.102 13.8971 119.26 14.1138 118.779 14.547C118.298 14.9803 118.057 15.7302 118.057 16.7967V18.0964H121.563V21.196Z" fill="#1A1A1A"/>
<path d="M124.331 22.2957C125.122 20.8792 126.204 19.7627 127.562 18.9795C128.919 18.1963 130.432 17.7964 132.081 17.7964C133.576 17.7964 134.865 18.0797 135.982 18.6463C137.099 19.2128 137.975 19.9127 138.646 20.7626V18.0963H142.598V36.4601H138.646V33.7272C137.975 34.5937 137.082 35.3103 135.93 35.8935C134.779 36.4767 133.473 36.76 132.012 36.76C130.38 36.76 128.902 36.3601 127.545 35.5436C126.187 34.727 125.122 33.5939 124.331 32.1441C123.541 30.6943 123.145 29.0446 123.145 27.1949C123.145 25.3452 123.541 23.7288 124.331 22.2957ZM137.838 23.9621C137.305 23.0289 136.601 22.3123 135.724 21.8291C134.848 21.3458 133.92 21.0959 132.906 21.0959C131.892 21.0959 130.964 21.3292 130.088 21.8124C129.211 22.2957 128.507 22.9956 127.974 23.9121C127.441 24.8286 127.167 25.9284 127.167 27.1949C127.167 28.4614 127.441 29.5778 127.974 30.5277C128.507 31.4775 129.229 32.2108 130.105 32.7107C130.981 33.2106 131.927 33.4606 132.906 33.4606C133.886 33.4606 134.848 33.2106 135.724 32.7273C136.601 32.2441 137.305 31.5275 137.838 30.5777C138.371 29.6278 138.646 28.528 138.646 27.2615C138.646 25.9951 138.371 24.8953 137.838 23.9621Z" fill="#1A1A1A"/>
<path d="M153.37 18.5796C154.315 18.063 155.449 17.7964 156.755 17.7964V21.7291H155.759C154.229 21.7291 153.061 22.1124 152.27 22.8622C151.48 23.6121 151.085 24.9286 151.085 26.795V36.4601H147.167V18.0963H151.085V20.7626C151.652 19.8294 152.408 19.1128 153.37 18.5796Z" fill="#1A1A1A"/>
<path d="M176.996 28.6946H162.526C162.647 30.1611 163.197 31.3442 164.211 32.2274C165.224 33.1106 166.462 33.5605 167.922 33.5605C170.036 33.5605 171.514 32.7107 172.39 30.9943H176.617C176.05 32.6773 175.002 34.0605 173.507 35.1436C172.012 36.2268 170.139 36.76 167.922 36.76C166.118 36.76 164.485 36.3601 163.059 35.5769C161.633 34.7937 160.499 33.6772 159.691 32.2441C158.883 30.811 158.471 29.1446 158.471 27.2615C158.471 25.3785 158.866 23.7121 159.657 22.279C160.447 20.8459 161.564 19.7461 162.99 18.9629C164.417 18.1797 166.066 17.7964 167.922 17.7964C169.778 17.7964 171.308 18.1797 172.699 18.9295C174.091 19.6794 175.191 20.7459 175.964 22.1124C176.738 23.4788 177.133 25.0452 177.133 26.8283C177.133 27.5282 177.081 28.1447 176.996 28.6946ZM173.043 25.6285C173.026 24.2287 172.51 23.1122 171.497 22.2623C170.483 21.4125 169.245 20.9959 167.75 20.9959C166.393 20.9959 165.242 21.4125 164.279 22.2457C163.317 23.0789 162.75 24.212 162.561 25.6285H173.043Z" fill="#1A1A1A"/>
<path d="M179.573 18.2966V17.8135H181.789V18.2966H180.982V20.4293H180.38V18.2966H179.573Z" fill="#1A1A1A"/>
<path d="M182.926 17.8135L183.561 19.6129L184.163 17.8135H185.005V20.4293H184.455V18.5799L183.785 20.4293H183.321L182.668 18.5965V20.4293H182.118V17.8135H182.926Z" fill="#1A1A1A"/>
</g>
<defs>
<linearGradient id="paint0_linear_1_204" x1="12.8964" y1="46.6502" x2="37.5031" y2="2.70031" gradientUnits="userSpaceOnUse">
<stop stop-color="#0B5F4F"/>
<stop offset="1" stop-color="#02B793"/>
</linearGradient>
<clipPath id="clip0_1_204">
<rect width="185" height="50" fill="white"/>
</clipPath>
</defs>
</svg>
